<svg xmlns="http://www.w3.org/2000/svg" version="1.1" xmlns:xlink="http://www.w3.org/1999/xlink" xmlns:svgjs="http://svgjs.dev/svgjs" width="1500" height="1687" viewBox="0 0 1500 1687"><g transform="matrix(1,0,0,1,0,0)"><svg viewBox="0 0 320 360" data-background-color="#000000" preserveAspectRatio="xMidYMid meet" height="1687" width="1500" xmlns="http://www.w3.org/2000/svg" xmlns:xlink="http://www.w3.org/1999/xlink"><g id="tight-bounds" transform="matrix(1,0,0,1,0,0)"><svg viewBox="0 0 320 360" height="360" width="320"><rect width="320" height="360" fill="url(#995be1bb-344a-4d78-a8cf-ea2586f2b876)" mask="url(#0cebd18e-96be-48d7-82a5-ee2432461fdd)" data-fill-palette-color="tertiary"></rect><g><svg></svg></g><g><svg viewBox="0 0 320 360" height="360" width="320"><g><path transform="translate(-25.80645,-5.80645) scale(10.32258,10.32258)" d="M18 33.5c8.55 0 15.5-6.95 15.5-15.5 0-8.55-6.95-15.5-15.5-15.5-8.55 0-15.5 6.95-15.5 15.5 0 8.55 6.95 15.5 15.5 15.5zM18.5 32.47v-1c7.04-0.26 12.71-5.93 12.97-12.97h1c-0.26 7.6-6.37 13.71-13.97 13.97zM18.5 3.53c7.6 0.26 13.71 6.37 13.97 13.97h-1c-0.26-7.04-5.93-12.71-12.97-12.97zM30.5 18c0 6.89-5.61 12.5-12.5 12.5-6.89 0-12.5-5.61-12.5-12.5 0-6.89 5.61-12.5 12.5-12.5 6.89 0 12.5 5.61 12.5 12.5zM17.5 3.53v1c-7.04 0.26-12.71 5.93-12.97 12.97h-1c0.26-7.6 6.37-13.71 13.97-13.97zM4.53 18.5c0.26 7.04 5.93 12.71 12.97 12.97v1c-7.6-0.26-13.71-6.37-13.97-13.97z" fill="url(#995be1bb-344a-4d78-a8cf-ea2586f2b876)" fill-rule="nonzero" stroke="none" stroke-width="1" stroke-linecap="butt" stroke-linejoin="miter" stroke-miterlimit="10" stroke-dasharray="" stroke-dashoffset="0" font-family="none" font-weight="none" font-size="none" text-anchor="none" style="mix-blend-mode: normal" data-fill-palette-color="tertiary"></path></g><g transform="matrix(1,0,0,1,64,131.29410973305954)"><svg viewBox="0 0 192 97.41178053388089" height="97.41178053388089" width="192"><g><svg viewBox="0 0 192 97.41178053388089" height="97.41178053388089" width="192"><g transform="matrix(1,0,0,1,0,60.20438833675564)"><svg viewBox="0 0 192 37.20739219712525" height="37.20739219712525" width="192"><g id="textblocktransform"><svg viewBox="0 0 192 37.20739219712525" height="37.20739219712525" width="192" id="textblock"><g><svg viewBox="0 0 192 37.20739219712525" height="37.20739219712525" width="192"><g transform="matrix(1,0,0,1,0,0)"><svg width="192" viewBox="2 -37.5 194.79 37.75" height="37.20739219712525" data-palette-color="url(#4b49dfa3-3ff2-4808-907a-8711299b39da)"></svg></g></svg></g></svg></g></svg></g><g transform="matrix(1,0,0,1,66.5753459494966,0)"><svg viewBox="0 0 58.84930810100682 51.420616016427104" height="51.420616016427104" width="58.84930810100682"><g><svg xmlns="http://www.w3.org/2000/svg" xmlns:xlink="http://www.w3.org/1999/xlink" version="1.1" x="8" y="0" viewBox="42.68599999999996 0.01599999999996271 426.628 511.9680000000001" enable-background="new 0 0 512 512" xml:space="preserve" height="51.420616016427104" width="42.84930810100682" class="icon-icon-0" data-fill-palette-color="accent" id="icon-0"></svg></g></svg></g><g></g></svg></g></svg></g></svg></g><defs></defs><mask id="72e682bb-5cef-4ef9-99d5-8874eb8a6bfb"><g id="SvgjsG1614"><svg viewBox="0 0 320 360" height="360" width="320"><g><svg></svg></g><g><svg viewBox="0 0 320 360" height="360" width="320"><g><path transform="translate(-25.80645,-5.80645) scale(10.32258,10.32258)" d="M18 33.5c8.55 0 15.5-6.95 15.5-15.5 0-8.55-6.95-15.5-15.5-15.5-8.55 0-15.5 6.95-15.5 15.5 0 8.55 6.95 15.5 15.5 15.5zM18.5 32.47v-1c7.04-0.26 12.71-5.93 12.97-12.97h1c-0.26 7.6-6.37 13.71-13.97 13.97zM18.5 3.53c7.6 0.26 13.71 6.37 13.97 13.97h-1c-0.26-7.04-5.93-12.71-12.97-12.97zM30.5 18c0 6.89-5.61 12.5-12.5 12.5-6.89 0-12.5-5.61-12.5-12.5 0-6.89 5.61-12.5 12.5-12.5 6.89 0 12.5 5.61 12.5 12.5zM17.5 3.53v1c-7.04 0.26-12.71 5.93-12.97 12.97h-1c0.26-7.6 6.37-13.71 13.97-13.97zM4.53 18.5c0.26 7.04 5.93 12.71 12.97 12.97v1c-7.6-0.26-13.71-6.37-13.97-13.97z" fill="black" fill-rule="nonzero" stroke="none" stroke-width="1" stroke-linecap="butt" stroke-linejoin="miter" stroke-miterlimit="10" stroke-dasharray="" stroke-dashoffset="0" font-family="none" font-weight="none" font-size="none" text-anchor="none" style="mix-blend-mode: normal"></path></g><g transform="matrix(1,0,0,1,64,131.29410973305954)"><svg viewBox="0 0 192 97.41178053388089" height="97.41178053388089" width="192"><g><svg viewBox="0 0 192 97.41178053388089" height="97.41178053388089" width="192"><g transform="matrix(1,0,0,1,0,60.20438833675564)"><svg viewBox="0 0 192 37.20739219712525" height="37.20739219712525" width="192"><g id="SvgjsG1613"><svg viewBox="0 0 192 37.20739219712525" height="37.20739219712525" width="192" id="SvgjsSvg1612"><g><svg viewBox="0 0 192 37.20739219712525" height="37.20739219712525" width="192"><g transform="matrix(1,0,0,1,0,0)"><svg width="192" viewBox="2 -37.5 194.79 37.75" height="37.20739219712525" data-palette-color="url(#4b49dfa3-3ff2-4808-907a-8711299b39da)"><path d="M17.65-34.3L17.65-34.3Q12-34.3 8.7-29.6 5.4-24.9 5.4-16L5.4-16Q5.4-5.2 10.35-2.05L10.35-2.05Q11.85-1.1 13.13-0.83 14.4-0.55 15.95-0.55L15.95-0.55Q20.9-0.55 26.3-1.75L26.3-1.75 26.45-1.05Q25.6-0.75 21.93-0.28 18.25 0.2 15.95 0.2 13.65 0.2 11.95-0.13 10.25-0.45 8.35-1.5 6.45-2.55 5.13-4.28 3.8-6 2.9-9 2-12 2-16L2-16Q2-24.85 6.05-29.8L6.05-29.8Q10.3-35 17.65-35L17.65-35Q19.9-35 22.53-34.58 25.15-34.15 26.25-33.75L26.25-33.75 26.85-26.55 25.9-26.2 25.25-31.55Q21.2-34.3 17.65-34.3ZM39.67 0.2Q34.45 0.2 31.22-2.8 28-5.8 28-11.98 28-18.15 31.42-21.68 34.85-25.2 40.05-25.2 45.25-25.2 48.5-22.2 51.75-19.2 51.75-13.03 51.75-6.85 48.32-3.33 44.9 0.2 39.67 0.2ZM40-24.3Q36.25-24.3 33.75-21.05 31.25-17.8 31.25-12.23 31.25-6.65 33.62-3.68 36-0.7 39.75-0.7 43.5-0.7 46-3.95 48.5-7.2 48.5-12.75 48.5-18.3 46.12-21.3 43.75-24.3 40-24.3ZM67.92 0.2Q62.7 0.2 59.47-2.8 56.25-5.8 56.25-11.98 56.25-18.15 59.67-21.68 63.1-25.2 68.3-25.2 73.5-25.2 76.75-22.2 80-19.2 80-13.03 80-6.85 76.57-3.33 73.15 0.2 67.92 0.2ZM68.25-24.3Q64.5-24.3 62-21.05 59.5-17.8 59.5-12.23 59.5-6.65 61.87-3.68 64.25-0.7 68-0.7 71.75-0.7 74.25-3.95 76.75-7.2 76.75-12.75 76.75-18.3 74.37-21.3 72-24.3 68.25-24.3ZM93.54 0L83.49 0.05 83.54-0.65 86.14-1Q86.49-1.05 86.59-1.5L86.59-1.5 86.59-35.7Q86.59-36.25 86.29-36.25L86.29-36.25 83.24-36.35 83.29-37.05Q86.44-37.5 87.62-37.5 88.79-37.5 89.32-36.85 89.84-36.2 89.84-35.45L89.84-35.45 89.84-1 93.59-0.75Q93.59-0.7 93.54 0L93.54 0ZM103.89-1L107.34-0.75Q107.34-0.7 107.29 0L107.29 0 100.99 0 89.84-13.3 98.44-23.25Q98.44-23.9 98.04-23.95L98.04-23.95 95.44-24.3Q95.39-24.55 95.39-25L95.39-25 105.89-24.95Q105.89-24.9 105.94-24.2L105.94-24.2 100.24-23.85 91.84-14.7 103.89-1ZM131.54-34.95L141.04-35Q141.04-34.95 141.09-34.25L141.09-34.25 137.94-33.9 137.94-0.95 141.59-0.75Q141.59-0.7 141.54 0L141.54 0 131.54 0.05Q131.54-0.4 131.59-0.65L131.59-0.65 134.19-1Q134.69-1.05 134.79-1.65L134.79-1.65 134.79-16.85 117.74-16.85 117.74-0.95 121.44-0.75Q121.44-0.7 121.39 0L121.39 0 111.34 0.05 111.39-0.65 113.99-1Q114.49-1.05 114.59-1.6L114.59-1.6 114.59-33.3Q114.49-33.9 113.99-33.95L113.99-33.95 111.39-34.2 111.34-34.95 121.39-35Q121.39-34.95 121.44-34.25L121.44-34.25 117.74-33.9 117.74-17.85 134.79-17.85 134.79-33.25Q134.69-33.9 134.19-33.95L134.19-33.95 131.59-34.2Q131.54-34.5 131.54-34.95L131.54-34.95ZM146.24-23.95L143.64-24.2 143.59-24.95 150.34-25 150.34-7.6Q150.34-5.65 150.89-4.23 151.44-2.8 152.11-2.15 152.79-1.5 153.69-1.15L153.69-1.15Q155.09-0.65 156.04-0.75L156.04-0.75Q159.09-0.8 162.99-3.9L162.99-3.9 162.99-23.25Q162.79-23.85 162.14-23.95L162.14-23.95 159.54-24.2Q159.49-24.5 159.49-24.95L159.49-24.95 166.24-25 166.24-2.3Q166.34-1.05 167.04-1.05L167.04-1.05 170.04-0.9 169.99-0.15Q167.59 0.25 164.99 0.25L164.99 0.25Q164.39 0.2 163.69-0.43 162.99-1.05 162.99-2L162.99-2 162.99-2.9Q158.44 0.15 154.39 0.15L154.39 0.15Q152.69 0.15 150.39-0.7L150.39-0.7Q148.89-1.25 147.99-2.78 147.09-4.3 147.09-6.6L147.09-6.6 147.09-23.2Q147.09-23.45 146.81-23.68 146.54-23.9 146.24-23.95L146.24-23.95ZM180.14-35.45L180.14-35.45 180.14-23Q183.14-25.45 186.84-25.45L186.84-25.45Q190.24-25.45 193.24-23.35L193.24-23.35Q194.84-22.2 195.81-19.75 196.79-17.3 196.79-13.8L196.79-13.8Q196.79-7.15 193.49-3.8L193.49-3.8Q189.74 0 183.99 0L183.99 0Q181.84 0 179.71-0.35 177.59-0.7 176.89-1.15L176.89-1.15 176.89-35.85Q176.79-36.25 176.59-36.25L176.59-36.25 173.54-36.35 173.59-37.05Q176.74-37.5 177.91-37.5 179.09-37.5 179.61-36.85 180.14-36.2 180.14-35.45ZM180.14-22.05L180.14-22.05 180.14-0.9Q181.49-0.45 183.29-0.45L183.29-0.45Q188.19-0.45 190.86-3.9 193.54-7.35 193.54-13.55L193.54-13.55Q193.54-20.35 190.84-22.7L190.84-22.7Q188.74-24.55 185.99-24.55 183.24-24.55 180.14-22.05Z" opacity="1" transform="matrix(1,0,0,1,0,0)" fill="white" class="wordmark-text-0" id="SvgjsPath1611"></path></svg></g></svg></g></svg></g></svg></g><g transform="matrix(1,0,0,1,66.5753459494966,0)"><svg viewBox="0 0 58.84930810100682 51.420616016427104" height="51.420616016427104" width="58.84930810100682"><g><svg xmlns="http://www.w3.org/2000/svg" xmlns:xlink="http://www.w3.org/1999/xlink" version="1.1" x="8" y="0" viewBox="42.68599999999996 0.01599999999996271 426.628 511.9680000000001" enable-background="new 0 0 512 512" xml:space="preserve" height="51.420616016427104" width="42.84930810100682" class="icon-icon-0" data-fill-palette-color="accent" id="SvgjsSvg1610"><g fill="black"><path d="M434.161 402.381l-1.594-0.453c-23.093-6.217-30.904-12.154-41.185-16.076-36.451-13.891-45.951-23.904-48.373-28.639-0.078-0.156-0.156-0.344-0.234-0.531l-0.219-31.842c1.75-2.359 3.469-4.75 5.125-7.219 22.655-10.984 25.717-28.311 21.218-42.654 4.499-13.686 7.093-28.029 7.093-42.591 0-6.538-0.375-12.89-1.109-19.038h1.109v-65.191c34.873-6.288 61.324-36.786 61.324-73.472 0-41.231-33.419-74.659-74.65-74.659-20.906 0-39.779 8.593-53.326 22.428C295.779 8.601 276.904 0.016 256 0.016c-18.28 0-35.029 6.577-48.013 17.483C195.02 6.593 178.286 0.016 160.006 0.016c-41.231 0-74.667 33.428-74.667 74.659 0 32.842 21.202 60.723 50.669 70.723v67.94h1.109c-0.734 6.148-1.109 12.5-1.109 19.038 0 14.562 2.594 28.905 7.093 42.606-4.499 14.328-1.438 31.654 21.218 42.639 1.656 2.469 3.375 4.859 5.125 7.219l-0.219 31.842c-0.078 0.188-0.156 0.375-0.234 0.531-2.422 4.734-11.922 14.748-48.388 28.639-10.266 3.922-18.077 9.859-41.17 16.076l-1.594 0.453c-21.014 6.953-35.153 26.451-35.153 48.451v61.152H256h213.314v-61.152C469.314 428.832 455.176 409.334 434.161 402.381zM190.551 356.838l0.062-8.156c21.733 20.639 46.106 33.42 65.387 33.42s43.654-12.781 65.387-33.42l0.062 8.156 0.031 4.531 0.719 1.594-66.105 43.168-65.777-44.324 0.203-0.453L190.551 356.838zM256 308.84c10.375 11.359 27.982 18.938 45.403 18.938 1.781 0 3.562-0.078 5.344-0.25 2.171-0.188 4.265-0.406 6.296-0.672-9.421 9.998-19.67 18.389-29.92 24.482-10.249 6.078-19.889 9.438-27.123 9.438-7.233 0-16.874-3.359-27.123-9.438-10.249-6.094-20.499-14.484-29.92-24.482 2.031 0.266 4.125 0.484 6.296 0.672 1.781 0.172 3.562 0.25 5.344 0.25C228.018 327.777 245.626 320.199 256 308.84zM304.794 306.293c-1.109 0.109-2.25 0.156-3.391 0.156-14.812 0-28.764-8.311-32.498-16.076-0.812-1.672-2.312-4.812 2.516-10.844 0.219-0.281 0.422-0.531 0.609-0.75 2.906 1.547 7.452 4.922 10.405 7.109 10.531 7.812 23.64 17.529 40.576 17.529 0.172 0 0.328 0 0.5 0C318.402 304.59 312.23 305.621 304.794 306.293zM243.095 290.373c-1.828 3.797-6.047 7.688-11.577 10.686-6.406 3.469-13.827 5.391-20.921 5.391-1.141 0-2.281-0.047-3.391-0.156-7.437-0.672-13.608-1.703-18.718-2.875 0.172 0 0.328 0 0.5 0 16.937 0 30.046-9.717 40.576-17.529 2.953-2.188 7.499-5.562 10.405-7.109 0.188 0.219 0.391 0.469 0.609 0.75C245.407 285.561 243.907 288.701 243.095 290.373zM106.682 74.675c0-29.404 23.92-53.325 53.324-53.325 12.343 0 24.265 4.273 33.764 12.062-7.858 11.819-12.437 26.006-12.437 41.263 0 5.891 4.781 10.671 10.671 10.671 5.891 0 10.672-4.78 10.672-10.671 0-29.404 23.92-53.325 53.324-53.325s53.324 23.921 53.324 53.325l0 0c0 5.891 4.781 10.671 10.672 10.671s10.672-4.78 10.672-10.671c0-0.016 0-0.039 0-0.055-0.016-12.491-3.094-24.264-8.531-34.607 1.672-1.953 3.5-3.797 5.453-5.507 9.702-8.484 22.154-13.156 35.076-13.156 29.404 0 53.324 23.921 53.324 53.325 0 12.577-4.453 24.788-12.546 34.373-8.015 9.491-19.108 15.921-31.233 18.108l-17.545 3.164v17.826 43.857H157.334v-46.606-15.288l-14.468-4.914C121.212 117.852 106.682 97.549 106.682 74.675zM353.385 213.338c0.844 6.156 1.281 12.516 1.281 19.038 0 6.664-0.672 13.46-1.984 20.312-2.469-1.523-4.875-2.367-7-2.367-0.078 0-0.156 0-0.234 0-14.451 0.438-21.404 15.438-21.404 15.438 2.156-0.664 4.266-0.961 6.234-0.961 9.967 0 16.061 7.67 3.468 14.467-3.671 1.984-7.249 2.828-10.733 2.828-19.108 0-35.451-25.35-52.091-25.35-4.921 0-9.874 2.227-14.921 7.984-5.046-5.758-9.999-7.984-14.921-7.984-16.64 0-32.982 25.35-52.091 25.35-3.483 0-7.062-0.844-10.749-2.828-12.577-6.797-6.483-14.467 3.484-14.467 1.969 0 4.078 0.297 6.234 0.961 0 0-6.953-15-21.405-15.438-0.078 0-0.156 0-0.234 0-2.125 0-4.531 0.844-7 2.367-1.312-6.844-1.984-13.647-1.984-20.312 0-6.522 0.438-12.882 1.281-19.038H353.385zM64.012 450.832c0-12.688 8.109-23.936 20.202-28.092l0.953-0.281c17.624-4.75 27.764-9.594 35.17-13.141 3.047-1.453 5.468-2.609 7.874-3.531 13.39-5.109 23.749-9.889 31.795-14.311v99.166H64.012V450.832zM181.333 490.643v-109.15l74.573 50.246 74.762-48.824v107.729H256 181.333zM447.988 490.643h-95.994v-99.166c8.047 4.422 18.405 9.201 31.811 14.326 2.391 0.906 4.812 2.062 7.859 3.516 7.405 3.547 17.545 8.391 35.17 13.156l0.953 0.266c12.092 4.156 20.201 15.404 20.201 28.092V490.643z" fill="black"></path><path d="M224.002 426.646c-5.89 0-10.671 4.779-10.671 10.67s4.781 10.672 10.671 10.672c5.891 0 10.672-4.781 10.672-10.672S229.893 426.646 224.002 426.646z" fill="black"></path><path d="M224.002 469.314c-5.89 0-10.671 4.781-10.671 10.672s4.781 10.656 10.671 10.656c5.891 0 10.672-4.766 10.672-10.656S229.893 469.314 224.002 469.314z" fill="black"></path><path d="M287.998 447.988c5.891 0 10.672-4.781 10.672-10.672s-4.781-10.67-10.672-10.67-10.672 4.779-10.672 10.67S282.107 447.988 287.998 447.988z" fill="black"></path><path d="M287.998 469.314c-5.891 0-10.672 4.781-10.672 10.672s4.781 10.656 10.672 10.656 10.672-4.766 10.672-10.656S293.889 469.314 287.998 469.314z" fill="black"></path></g></svg></g></svg></g><g><rect width="66.5753459494966" height="3.3554010263655027" y="47.0652149900616" x="125.42465405050342" fill="black"></rect><rect width="66.5753459494966" height="3.3554010263655027" y="47.0652149900616" x="0" fill="black"></rect><rect width="66.5753459494966" height="3.3554010263655027" y="40.35441293733059" x="125.42465405050342" fill="black"></rect><rect width="66.5753459494966" height="3.3554010263655027" y="40.35441293733059" x="0" fill="black"></rect></g></svg></g></svg></g></svg></g><defs><mask></mask></defs></svg><rect width="320" height="360" fill="black" stroke="none" visibility="hidden"></rect></g></mask><linearGradient x1="0" x2="1" y1="0.578" y2="0.595" id="4b49dfa3-3ff2-4808-907a-8711299b39da"><stop stop-color="#dede50" offset="0"></stop><stop stop-color="#559c49" offset="1"></stop></linearGradient><rect width="320" height="360" fill="url(#4b49dfa3-3ff2-4808-907a-8711299b39da)" mask="url(#72e682bb-5cef-4ef9-99d5-8874eb8a6bfb)" data-fill-palette-color="primary"></rect><mask id="3482bbf4-0796-40ff-ab97-deab9a0533cb"><g id="SvgjsG1633"><svg viewBox="0 0 320 360" height="360" width="320"><g><svg></svg></g><g><svg viewBox="0 0 320 360" height="360" width="320"><g><path transform="translate(-25.80645,-5.80645) scale(10.32258,10.32258)" d="M18 33.5c8.55 0 15.5-6.95 15.5-15.5 0-8.55-6.95-15.5-15.5-15.5-8.55 0-15.5 6.95-15.5 15.5 0 8.55 6.95 15.5 15.5 15.5zM18.5 32.47v-1c7.04-0.26 12.71-5.93 12.97-12.97h1c-0.26 7.6-6.37 13.71-13.97 13.97zM18.5 3.53c7.6 0.26 13.71 6.37 13.97 13.97h-1c-0.26-7.04-5.93-12.71-12.97-12.97zM30.5 18c0 6.89-5.61 12.5-12.5 12.5-6.89 0-12.5-5.61-12.5-12.5 0-6.89 5.61-12.5 12.5-12.5 6.89 0 12.5 5.61 12.5 12.5zM17.5 3.53v1c-7.04 0.26-12.71 5.93-12.97 12.97h-1c0.26-7.6 6.37-13.71 13.97-13.97zM4.53 18.5c0.26 7.04 5.93 12.71 12.97 12.97v1c-7.6-0.26-13.71-6.37-13.97-13.97z" fill="black" fill-rule="nonzero" stroke="none" stroke-width="1" stroke-linecap="butt" stroke-linejoin="miter" stroke-miterlimit="10" stroke-dasharray="" stroke-dashoffset="0" font-family="none" font-weight="none" font-size="none" text-anchor="none" style="mix-blend-mode: normal"></path></g><g transform="matrix(1,0,0,1,64,131.29410973305954)"><svg viewBox="0 0 192 97.41178053388089" height="97.41178053388089" width="192"><g><svg viewBox="0 0 192 97.41178053388089" height="97.41178053388089" width="192"><g transform="matrix(1,0,0,1,0,60.20438833675564)"><svg viewBox="0 0 192 37.20739219712525" height="37.20739219712525" width="192"><g id="SvgjsG1632"><svg viewBox="0 0 192 37.20739219712525" height="37.20739219712525" width="192" id="SvgjsSvg1631"><g><svg viewBox="0 0 192 37.20739219712525" height="37.20739219712525" width="192"><g transform="matrix(1,0,0,1,0,0)"><svg width="192" viewBox="2 -37.5 194.79 37.75" height="37.20739219712525" data-palette-color="url(#4b49dfa3-3ff2-4808-907a-8711299b39da)"></svg></g></svg></g></svg></g></svg></g><g transform="matrix(1,0,0,1,66.5753459494966,0)"><svg viewBox="0 0 58.84930810100682 51.420616016427104" height="51.420616016427104" width="58.84930810100682"><g><svg xmlns="http://www.w3.org/2000/svg" xmlns:xlink="http://www.w3.org/1999/xlink" version="1.1" x="8" y="0" viewBox="42.68599999999996 0.01599999999996271 426.628 511.9680000000001" enable-background="new 0 0 512 512" xml:space="preserve" height="51.420616016427104" width="42.84930810100682" class="icon-icon-0" data-fill-palette-color="accent" id="SvgjsSvg1630"><g fill="white"><path d="M434.161 402.381l-1.594-0.453c-23.093-6.217-30.904-12.154-41.185-16.076-36.451-13.891-45.951-23.904-48.373-28.639-0.078-0.156-0.156-0.344-0.234-0.531l-0.219-31.842c1.75-2.359 3.469-4.75 5.125-7.219 22.655-10.984 25.717-28.311 21.218-42.654 4.499-13.686 7.093-28.029 7.093-42.591 0-6.538-0.375-12.89-1.109-19.038h1.109v-65.191c34.873-6.288 61.324-36.786 61.324-73.472 0-41.231-33.419-74.659-74.65-74.659-20.906 0-39.779 8.593-53.326 22.428C295.779 8.601 276.904 0.016 256 0.016c-18.28 0-35.029 6.577-48.013 17.483C195.02 6.593 178.286 0.016 160.006 0.016c-41.231 0-74.667 33.428-74.667 74.659 0 32.842 21.202 60.723 50.669 70.723v67.94h1.109c-0.734 6.148-1.109 12.5-1.109 19.038 0 14.562 2.594 28.905 7.093 42.606-4.499 14.328-1.438 31.654 21.218 42.639 1.656 2.469 3.375 4.859 5.125 7.219l-0.219 31.842c-0.078 0.188-0.156 0.375-0.234 0.531-2.422 4.734-11.922 14.748-48.388 28.639-10.266 3.922-18.077 9.859-41.17 16.076l-1.594 0.453c-21.014 6.953-35.153 26.451-35.153 48.451v61.152H256h213.314v-61.152C469.314 428.832 455.176 409.334 434.161 402.381zM190.551 356.838l0.062-8.156c21.733 20.639 46.106 33.42 65.387 33.42s43.654-12.781 65.387-33.42l0.062 8.156 0.031 4.531 0.719 1.594-66.105 43.168-65.777-44.324 0.203-0.453L190.551 356.838zM256 308.84c10.375 11.359 27.982 18.938 45.403 18.938 1.781 0 3.562-0.078 5.344-0.25 2.171-0.188 4.265-0.406 6.296-0.672-9.421 9.998-19.67 18.389-29.92 24.482-10.249 6.078-19.889 9.438-27.123 9.438-7.233 0-16.874-3.359-27.123-9.438-10.249-6.094-20.499-14.484-29.92-24.482 2.031 0.266 4.125 0.484 6.296 0.672 1.781 0.172 3.562 0.25 5.344 0.25C228.018 327.777 245.626 320.199 256 308.84zM304.794 306.293c-1.109 0.109-2.25 0.156-3.391 0.156-14.812 0-28.764-8.311-32.498-16.076-0.812-1.672-2.312-4.812 2.516-10.844 0.219-0.281 0.422-0.531 0.609-0.75 2.906 1.547 7.452 4.922 10.405 7.109 10.531 7.812 23.64 17.529 40.576 17.529 0.172 0 0.328 0 0.5 0C318.402 304.59 312.23 305.621 304.794 306.293zM243.095 290.373c-1.828 3.797-6.047 7.688-11.577 10.686-6.406 3.469-13.827 5.391-20.921 5.391-1.141 0-2.281-0.047-3.391-0.156-7.437-0.672-13.608-1.703-18.718-2.875 0.172 0 0.328 0 0.5 0 16.937 0 30.046-9.717 40.576-17.529 2.953-2.188 7.499-5.562 10.405-7.109 0.188 0.219 0.391 0.469 0.609 0.75C245.407 285.561 243.907 288.701 243.095 290.373zM106.682 74.675c0-29.404 23.92-53.325 53.324-53.325 12.343 0 24.265 4.273 33.764 12.062-7.858 11.819-12.437 26.006-12.437 41.263 0 5.891 4.781 10.671 10.671 10.671 5.891 0 10.672-4.78 10.672-10.671 0-29.404 23.92-53.325 53.324-53.325s53.324 23.921 53.324 53.325l0 0c0 5.891 4.781 10.671 10.672 10.671s10.672-4.78 10.672-10.671c0-0.016 0-0.039 0-0.055-0.016-12.491-3.094-24.264-8.531-34.607 1.672-1.953 3.5-3.797 5.453-5.507 9.702-8.484 22.154-13.156 35.076-13.156 29.404 0 53.324 23.921 53.324 53.325 0 12.577-4.453 24.788-12.546 34.373-8.015 9.491-19.108 15.921-31.233 18.108l-17.545 3.164v17.826 43.857H157.334v-46.606-15.288l-14.468-4.914C121.212 117.852 106.682 97.549 106.682 74.675zM353.385 213.338c0.844 6.156 1.281 12.516 1.281 19.038 0 6.664-0.672 13.46-1.984 20.312-2.469-1.523-4.875-2.367-7-2.367-0.078 0-0.156 0-0.234 0-14.451 0.438-21.404 15.438-21.404 15.438 2.156-0.664 4.266-0.961 6.234-0.961 9.967 0 16.061 7.67 3.468 14.467-3.671 1.984-7.249 2.828-10.733 2.828-19.108 0-35.451-25.35-52.091-25.35-4.921 0-9.874 2.227-14.921 7.984-5.046-5.758-9.999-7.984-14.921-7.984-16.64 0-32.982 25.35-52.091 25.35-3.483 0-7.062-0.844-10.749-2.828-12.577-6.797-6.483-14.467 3.484-14.467 1.969 0 4.078 0.297 6.234 0.961 0 0-6.953-15-21.405-15.438-0.078 0-0.156 0-0.234 0-2.125 0-4.531 0.844-7 2.367-1.312-6.844-1.984-13.647-1.984-20.312 0-6.522 0.438-12.882 1.281-19.038H353.385zM64.012 450.832c0-12.688 8.109-23.936 20.202-28.092l0.953-0.281c17.624-4.75 27.764-9.594 35.17-13.141 3.047-1.453 5.468-2.609 7.874-3.531 13.39-5.109 23.749-9.889 31.795-14.311v99.166H64.012V450.832zM181.333 490.643v-109.15l74.573 50.246 74.762-48.824v107.729H256 181.333zM447.988 490.643h-95.994v-99.166c8.047 4.422 18.405 9.201 31.811 14.326 2.391 0.906 4.812 2.062 7.859 3.516 7.405 3.547 17.545 8.391 35.17 13.156l0.953 0.266c12.092 4.156 20.201 15.404 20.201 28.092V490.643z" fill="white"></path><path d="M224.002 426.646c-5.89 0-10.671 4.779-10.671 10.67s4.781 10.672 10.671 10.672c5.891 0 10.672-4.781 10.672-10.672S229.893 426.646 224.002 426.646z" fill="white"></path><path d="M224.002 469.314c-5.89 0-10.671 4.781-10.671 10.672s4.781 10.656 10.671 10.656c5.891 0 10.672-4.766 10.672-10.656S229.893 469.314 224.002 469.314z" fill="white"></path><path d="M287.998 447.988c5.891 0 10.672-4.781 10.672-10.672s-4.781-10.67-10.672-10.67-10.672 4.779-10.672 10.67S282.107 447.988 287.998 447.988z" fill="white"></path><path d="M287.998 469.314c-5.891 0-10.672 4.781-10.672 10.672s4.781 10.656 10.672 10.656 10.672-4.766 10.672-10.656S293.889 469.314 287.998 469.314z" fill="white"></path></g></svg></g></svg></g><g><rect width="66.5753459494966" height="3.3554010263655027" y="47.0652149900616" x="125.42465405050342" fill="white"></rect><rect width="66.5753459494966" height="3.3554010263655027" y="47.0652149900616" x="0" fill="white"></rect><rect width="66.5753459494966" height="3.3554010263655027" y="40.35441293733059" x="125.42465405050342" fill="white"></rect><rect width="66.5753459494966" height="3.3554010263655027" y="40.35441293733059" x="0" fill="white"></rect></g></svg></g></svg></g></svg></g><defs><mask></mask></defs><mask><g id="SvgjsG1629"><svg viewBox="0 0 320 360" height="360" width="320"><g><svg></svg></g><g><svg viewBox="0 0 320 360" height="360" width="320"><g><path transform="translate(-25.80645,-5.80645) scale(10.32258,10.32258)" d="M18 33.5c8.55 0 15.5-6.95 15.5-15.5 0-8.55-6.95-15.5-15.5-15.5-8.55 0-15.5 6.95-15.5 15.5 0 8.55 6.95 15.5 15.5 15.5zM18.5 32.47v-1c7.04-0.26 12.71-5.93 12.97-12.97h1c-0.26 7.6-6.37 13.71-13.97 13.97zM18.5 3.53c7.6 0.26 13.71 6.37 13.97 13.97h-1c-0.26-7.04-5.93-12.71-12.97-12.97zM30.5 18c0 6.89-5.61 12.5-12.5 12.5-6.89 0-12.5-5.61-12.5-12.5 0-6.89 5.61-12.5 12.5-12.5 6.89 0 12.5 5.61 12.5 12.5zM17.5 3.53v1c-7.04 0.26-12.71 5.93-12.97 12.97h-1c0.26-7.6 6.37-13.71 13.97-13.97zM4.53 18.5c0.26 7.04 5.93 12.71 12.97 12.97v1c-7.6-0.26-13.71-6.37-13.97-13.97z" fill="black" fill-rule="nonzero" stroke="none" stroke-width="1" stroke-linecap="butt" stroke-linejoin="miter" stroke-miterlimit="10" stroke-dasharray="" stroke-dashoffset="0" font-family="none" font-weight="none" font-size="none" text-anchor="none" style="mix-blend-mode: normal"></path></g><g transform="matrix(1,0,0,1,64,131.29410973305954)"><svg viewBox="0 0 192 97.41178053388089" height="97.41178053388089" width="192"><g><svg viewBox="0 0 192 97.41178053388089" height="97.41178053388089" width="192"><g transform="matrix(1,0,0,1,0,60.20438833675564)"><svg viewBox="0 0 192 37.20739219712525" height="37.20739219712525" width="192"><g id="SvgjsG1628"><svg viewBox="0 0 192 37.20739219712525" height="37.20739219712525" width="192" id="SvgjsSvg1627"><g><svg viewBox="0 0 192 37.20739219712525" height="37.20739219712525" width="192"><g transform="matrix(1,0,0,1,0,0)"><svg width="192" viewBox="2 -37.5 194.79 37.75" height="37.20739219712525" data-palette-color="url(#4b49dfa3-3ff2-4808-907a-8711299b39da)"><path d="M17.65-34.3L17.65-34.3Q12-34.3 8.7-29.6 5.4-24.9 5.4-16L5.4-16Q5.4-5.2 10.35-2.05L10.35-2.05Q11.85-1.1 13.13-0.83 14.4-0.55 15.95-0.55L15.95-0.55Q20.9-0.55 26.3-1.75L26.3-1.75 26.45-1.05Q25.6-0.75 21.93-0.28 18.25 0.2 15.95 0.2 13.65 0.2 11.95-0.13 10.25-0.45 8.35-1.5 6.45-2.55 5.13-4.28 3.8-6 2.9-9 2-12 2-16L2-16Q2-24.85 6.05-29.8L6.05-29.8Q10.3-35 17.65-35L17.65-35Q19.9-35 22.53-34.58 25.15-34.15 26.25-33.75L26.25-33.75 26.85-26.55 25.9-26.2 25.25-31.55Q21.2-34.3 17.65-34.3ZM39.67 0.2Q34.45 0.2 31.22-2.8 28-5.8 28-11.98 28-18.15 31.42-21.68 34.85-25.2 40.05-25.2 45.25-25.2 48.5-22.2 51.75-19.2 51.75-13.03 51.75-6.85 48.32-3.33 44.9 0.2 39.67 0.2ZM40-24.3Q36.25-24.3 33.75-21.05 31.25-17.8 31.25-12.23 31.25-6.65 33.62-3.68 36-0.7 39.75-0.7 43.5-0.7 46-3.95 48.5-7.2 48.5-12.75 48.5-18.3 46.12-21.3 43.75-24.3 40-24.3ZM67.92 0.2Q62.7 0.2 59.47-2.8 56.25-5.8 56.25-11.98 56.25-18.15 59.67-21.68 63.1-25.2 68.3-25.2 73.5-25.2 76.75-22.2 80-19.2 80-13.03 80-6.85 76.57-3.33 73.15 0.2 67.92 0.2ZM68.25-24.3Q64.5-24.3 62-21.05 59.5-17.8 59.5-12.23 59.5-6.65 61.87-3.68 64.25-0.7 68-0.7 71.75-0.7 74.25-3.95 76.75-7.2 76.75-12.75 76.75-18.3 74.37-21.3 72-24.3 68.25-24.3ZM93.54 0L83.49 0.05 83.54-0.65 86.14-1Q86.49-1.05 86.59-1.5L86.59-1.5 86.59-35.7Q86.59-36.25 86.29-36.25L86.29-36.25 83.24-36.35 83.29-37.05Q86.44-37.5 87.62-37.5 88.79-37.5 89.32-36.85 89.84-36.2 89.84-35.45L89.84-35.45 89.84-1 93.59-0.75Q93.59-0.7 93.54 0L93.54 0ZM103.89-1L107.34-0.75Q107.34-0.7 107.29 0L107.29 0 100.99 0 89.84-13.3 98.44-23.25Q98.44-23.9 98.04-23.95L98.04-23.95 95.44-24.3Q95.39-24.55 95.39-25L95.39-25 105.89-24.95Q105.89-24.9 105.94-24.2L105.94-24.2 100.24-23.85 91.84-14.7 103.89-1ZM131.54-34.95L141.04-35Q141.04-34.95 141.09-34.25L141.09-34.25 137.94-33.9 137.94-0.95 141.59-0.75Q141.59-0.7 141.54 0L141.54 0 131.54 0.05Q131.54-0.4 131.59-0.65L131.59-0.65 134.19-1Q134.69-1.05 134.79-1.65L134.79-1.65 134.79-16.85 117.74-16.85 117.74-0.95 121.44-0.75Q121.44-0.7 121.39 0L121.39 0 111.34 0.05 111.39-0.65 113.99-1Q114.49-1.05 114.59-1.6L114.59-1.6 114.59-33.3Q114.49-33.9 113.99-33.95L113.99-33.95 111.39-34.2 111.34-34.95 121.39-35Q121.39-34.95 121.44-34.25L121.44-34.25 117.74-33.9 117.74-17.85 134.79-17.85 134.79-33.25Q134.69-33.9 134.19-33.95L134.19-33.95 131.59-34.2Q131.54-34.5 131.54-34.95L131.54-34.95ZM146.24-23.95L143.64-24.2 143.59-24.95 150.34-25 150.34-7.6Q150.34-5.65 150.89-4.23 151.44-2.8 152.11-2.15 152.79-1.5 153.69-1.15L153.69-1.15Q155.09-0.65 156.04-0.75L156.04-0.75Q159.09-0.8 162.99-3.9L162.99-3.9 162.99-23.25Q162.79-23.85 162.14-23.95L162.14-23.95 159.54-24.2Q159.49-24.5 159.49-24.95L159.49-24.95 166.24-25 166.24-2.3Q166.34-1.05 167.04-1.05L167.04-1.05 170.04-0.9 169.99-0.15Q167.59 0.25 164.99 0.25L164.99 0.25Q164.39 0.2 163.69-0.43 162.99-1.05 162.99-2L162.99-2 162.99-2.9Q158.44 0.15 154.39 0.15L154.39 0.15Q152.69 0.15 150.39-0.7L150.39-0.7Q148.89-1.25 147.99-2.78 147.09-4.3 147.09-6.6L147.09-6.6 147.09-23.2Q147.09-23.45 146.81-23.68 146.54-23.9 146.24-23.95L146.24-23.95ZM180.14-35.45L180.14-35.45 180.14-23Q183.14-25.45 186.84-25.45L186.84-25.45Q190.24-25.45 193.24-23.35L193.24-23.35Q194.84-22.2 195.81-19.75 196.79-17.3 196.79-13.8L196.79-13.8Q196.79-7.15 193.49-3.8L193.49-3.8Q189.74 0 183.99 0L183.99 0Q181.84 0 179.71-0.35 177.59-0.7 176.89-1.15L176.89-1.15 176.89-35.85Q176.79-36.25 176.59-36.25L176.59-36.25 173.54-36.35 173.59-37.05Q176.74-37.5 177.91-37.5 179.09-37.5 179.61-36.85 180.14-36.2 180.14-35.45ZM180.14-22.05L180.14-22.05 180.14-0.9Q181.49-0.45 183.29-0.45L183.29-0.45Q188.19-0.45 190.86-3.9 193.54-7.35 193.54-13.55L193.54-13.55Q193.54-20.35 190.84-22.7L190.84-22.7Q188.74-24.55 185.99-24.55 183.24-24.55 180.14-22.05Z" opacity="1" transform="matrix(1,0,0,1,0,0)" fill="black" class="wordmark-text-0" id="SvgjsPath1626"></path></svg></g></svg></g></svg></g></svg></g><g transform="matrix(1,0,0,1,66.5753459494966,0)"><svg viewBox="0 0 58.84930810100682 51.420616016427104" height="51.420616016427104" width="58.84930810100682"><g><svg xmlns="http://www.w3.org/2000/svg" xmlns:xlink="http://www.w3.org/1999/xlink" version="1.1" x="8" y="0" viewBox="42.68599999999996 0.01599999999996271 426.628 511.9680000000001" enable-background="new 0 0 512 512" xml:space="preserve" height="51.420616016427104" width="42.84930810100682" class="icon-icon-0" data-fill-palette-color="accent" id="SvgjsSvg1625"><g fill="black"><path d="M434.161 402.381l-1.594-0.453c-23.093-6.217-30.904-12.154-41.185-16.076-36.451-13.891-45.951-23.904-48.373-28.639-0.078-0.156-0.156-0.344-0.234-0.531l-0.219-31.842c1.75-2.359 3.469-4.75 5.125-7.219 22.655-10.984 25.717-28.311 21.218-42.654 4.499-13.686 7.093-28.029 7.093-42.591 0-6.538-0.375-12.89-1.109-19.038h1.109v-65.191c34.873-6.288 61.324-36.786 61.324-73.472 0-41.231-33.419-74.659-74.65-74.659-20.906 0-39.779 8.593-53.326 22.428C295.779 8.601 276.904 0.016 256 0.016c-18.28 0-35.029 6.577-48.013 17.483C195.02 6.593 178.286 0.016 160.006 0.016c-41.231 0-74.667 33.428-74.667 74.659 0 32.842 21.202 60.723 50.669 70.723v67.94h1.109c-0.734 6.148-1.109 12.5-1.109 19.038 0 14.562 2.594 28.905 7.093 42.606-4.499 14.328-1.438 31.654 21.218 42.639 1.656 2.469 3.375 4.859 5.125 7.219l-0.219 31.842c-0.078 0.188-0.156 0.375-0.234 0.531-2.422 4.734-11.922 14.748-48.388 28.639-10.266 3.922-18.077 9.859-41.17 16.076l-1.594 0.453c-21.014 6.953-35.153 26.451-35.153 48.451v61.152H256h213.314v-61.152C469.314 428.832 455.176 409.334 434.161 402.381zM190.551 356.838l0.062-8.156c21.733 20.639 46.106 33.42 65.387 33.42s43.654-12.781 65.387-33.42l0.062 8.156 0.031 4.531 0.719 1.594-66.105 43.168-65.777-44.324 0.203-0.453L190.551 356.838zM256 308.84c10.375 11.359 27.982 18.938 45.403 18.938 1.781 0 3.562-0.078 5.344-0.25 2.171-0.188 4.265-0.406 6.296-0.672-9.421 9.998-19.67 18.389-29.92 24.482-10.249 6.078-19.889 9.438-27.123 9.438-7.233 0-16.874-3.359-27.123-9.438-10.249-6.094-20.499-14.484-29.92-24.482 2.031 0.266 4.125 0.484 6.296 0.672 1.781 0.172 3.562 0.25 5.344 0.25C228.018 327.777 245.626 320.199 256 308.84zM304.794 306.293c-1.109 0.109-2.25 0.156-3.391 0.156-14.812 0-28.764-8.311-32.498-16.076-0.812-1.672-2.312-4.812 2.516-10.844 0.219-0.281 0.422-0.531 0.609-0.75 2.906 1.547 7.452 4.922 10.405 7.109 10.531 7.812 23.64 17.529 40.576 17.529 0.172 0 0.328 0 0.5 0C318.402 304.59 312.23 305.621 304.794 306.293zM243.095 290.373c-1.828 3.797-6.047 7.688-11.577 10.686-6.406 3.469-13.827 5.391-20.921 5.391-1.141 0-2.281-0.047-3.391-0.156-7.437-0.672-13.608-1.703-18.718-2.875 0.172 0 0.328 0 0.5 0 16.937 0 30.046-9.717 40.576-17.529 2.953-2.188 7.499-5.562 10.405-7.109 0.188 0.219 0.391 0.469 0.609 0.75C245.407 285.561 243.907 288.701 243.095 290.373zM106.682 74.675c0-29.404 23.92-53.325 53.324-53.325 12.343 0 24.265 4.273 33.764 12.062-7.858 11.819-12.437 26.006-12.437 41.263 0 5.891 4.781 10.671 10.671 10.671 5.891 0 10.672-4.78 10.672-10.671 0-29.404 23.92-53.325 53.324-53.325s53.324 23.921 53.324 53.325l0 0c0 5.891 4.781 10.671 10.672 10.671s10.672-4.78 10.672-10.671c0-0.016 0-0.039 0-0.055-0.016-12.491-3.094-24.264-8.531-34.607 1.672-1.953 3.5-3.797 5.453-5.507 9.702-8.484 22.154-13.156 35.076-13.156 29.404 0 53.324 23.921 53.324 53.325 0 12.577-4.453 24.788-12.546 34.373-8.015 9.491-19.108 15.921-31.233 18.108l-17.545 3.164v17.826 43.857H157.334v-46.606-15.288l-14.468-4.914C121.212 117.852 106.682 97.549 106.682 74.675zM353.385 213.338c0.844 6.156 1.281 12.516 1.281 19.038 0 6.664-0.672 13.46-1.984 20.312-2.469-1.523-4.875-2.367-7-2.367-0.078 0-0.156 0-0.234 0-14.451 0.438-21.404 15.438-21.404 15.438 2.156-0.664 4.266-0.961 6.234-0.961 9.967 0 16.061 7.67 3.468 14.467-3.671 1.984-7.249 2.828-10.733 2.828-19.108 0-35.451-25.35-52.091-25.35-4.921 0-9.874 2.227-14.921 7.984-5.046-5.758-9.999-7.984-14.921-7.984-16.64 0-32.982 25.35-52.091 25.35-3.483 0-7.062-0.844-10.749-2.828-12.577-6.797-6.483-14.467 3.484-14.467 1.969 0 4.078 0.297 6.234 0.961 0 0-6.953-15-21.405-15.438-0.078 0-0.156 0-0.234 0-2.125 0-4.531 0.844-7 2.367-1.312-6.844-1.984-13.647-1.984-20.312 0-6.522 0.438-12.882 1.281-19.038H353.385zM64.012 450.832c0-12.688 8.109-23.936 20.202-28.092l0.953-0.281c17.624-4.75 27.764-9.594 35.17-13.141 3.047-1.453 5.468-2.609 7.874-3.531 13.39-5.109 23.749-9.889 31.795-14.311v99.166H64.012V450.832zM181.333 490.643v-109.15l74.573 50.246 74.762-48.824v107.729H256 181.333zM447.988 490.643h-95.994v-99.166c8.047 4.422 18.405 9.201 31.811 14.326 2.391 0.906 4.812 2.062 7.859 3.516 7.405 3.547 17.545 8.391 35.17 13.156l0.953 0.266c12.092 4.156 20.201 15.404 20.201 28.092V490.643z" fill="black"></path><path d="M224.002 426.646c-5.89 0-10.671 4.779-10.671 10.67s4.781 10.672 10.671 10.672c5.891 0 10.672-4.781 10.672-10.672S229.893 426.646 224.002 426.646z" fill="black"></path><path d="M224.002 469.314c-5.89 0-10.671 4.781-10.671 10.672s4.781 10.656 10.671 10.656c5.891 0 10.672-4.766 10.672-10.656S229.893 469.314 224.002 469.314z" fill="black"></path><path d="M287.998 447.988c5.891 0 10.672-4.781 10.672-10.672s-4.781-10.67-10.672-10.67-10.672 4.779-10.672 10.67S282.107 447.988 287.998 447.988z" fill="black"></path><path d="M287.998 469.314c-5.891 0-10.672 4.781-10.672 10.672s4.781 10.656 10.672 10.656 10.672-4.766 10.672-10.656S293.889 469.314 287.998 469.314z" fill="black"></path></g></svg></g></svg></g><g><rect width="66.5753459494966" height="3.3554010263655027" y="47.0652149900616" x="125.42465405050342" fill="black"></rect><rect width="66.5753459494966" height="3.3554010263655027" y="47.0652149900616" x="0" fill="black"></rect><rect width="66.5753459494966" height="3.3554010263655027" y="40.35441293733059" x="125.42465405050342" fill="black"></rect><rect width="66.5753459494966" height="3.3554010263655027" y="40.35441293733059" x="0" fill="black"></rect></g></svg></g></svg></g></svg></g><defs><mask></mask></defs></svg><rect width="320" height="360" fill="black" stroke="none" visibility="hidden"></rect></g></mask></svg><rect width="320" height="360" fill="black" stroke="none" visibility="hidden"></rect></g></mask><linearGradient x1="0" x2="1" y1="0.578" y2="0.595" id="c07fb44d-276d-41b0-9b73-5f29ea06135d"><stop stop-color="#dede50" offset="0"></stop><stop stop-color="#559c49" offset="1"></stop></linearGradient><rect width="320" height="360" fill="url(#c07fb44d-276d-41b0-9b73-5f29ea06135d)" mask="url(#3482bbf4-0796-40ff-ab97-deab9a0533cb)" data-fill-palette-color="accent"></rect><mask id="0cebd18e-96be-48d7-82a5-ee2432461fdd"><g id="SvgjsG1651"><svg viewBox="0 0 320 360" height="360" width="320"><g><svg></svg></g><g><svg viewBox="0 0 320 360" height="360" width="320"><g><path transform="translate(-25.80645,-5.80645) scale(10.32258,10.32258)" d="M18 33.5c8.55 0 15.5-6.95 15.5-15.5 0-8.55-6.95-15.5-15.5-15.5-8.55 0-15.5 6.95-15.5 15.5 0 8.55 6.95 15.5 15.5 15.5zM18.5 32.47v-1c7.04-0.26 12.71-5.93 12.97-12.97h1c-0.26 7.6-6.37 13.71-13.97 13.97zM18.5 3.53c7.6 0.26 13.71 6.37 13.97 13.97h-1c-0.26-7.04-5.93-12.71-12.97-12.97zM30.5 18c0 6.89-5.61 12.5-12.5 12.5-6.89 0-12.5-5.61-12.5-12.5 0-6.89 5.61-12.5 12.5-12.5 6.89 0 12.5 5.61 12.5 12.5zM17.5 3.53v1c-7.04 0.26-12.71 5.93-12.97 12.97h-1c0.26-7.6 6.37-13.71 13.97-13.97zM4.53 18.5c0.26 7.04 5.93 12.71 12.97 12.97v1c-7.6-0.26-13.71-6.37-13.97-13.97z" fill="white" fill-rule="nonzero" stroke="none" stroke-width="1" stroke-linecap="butt" stroke-linejoin="miter" stroke-miterlimit="10" stroke-dasharray="" stroke-dashoffset="0" font-family="none" font-weight="none" font-size="none" text-anchor="none" style="mix-blend-mode: normal"></path></g><g transform="matrix(1,0,0,1,64,131.29410973305954)"><svg viewBox="0 0 192 97.41178053388089" height="97.41178053388089" width="192"><g><svg viewBox="0 0 192 97.41178053388089" height="97.41178053388089" width="192"><g transform="matrix(1,0,0,1,0,60.20438833675564)"><svg viewBox="0 0 192 37.20739219712525" height="37.20739219712525" width="192"><g id="SvgjsG1650"><svg viewBox="0 0 192 37.20739219712525" height="37.20739219712525" width="192" id="SvgjsSvg1649"><g><svg viewBox="0 0 192 37.20739219712525" height="37.20739219712525" width="192"><g transform="matrix(1,0,0,1,0,0)"><svg width="192" viewBox="2 -37.5 194.79 37.75" height="37.20739219712525" data-palette-color="url(#4b49dfa3-3ff2-4808-907a-8711299b39da)"></svg></g></svg></g></svg></g></svg></g><g transform="matrix(1,0,0,1,66.5753459494966,0)"><svg viewBox="0 0 58.84930810100682 51.420616016427104" height="51.420616016427104" width="58.84930810100682"><g><svg xmlns="http://www.w3.org/2000/svg" xmlns:xlink="http://www.w3.org/1999/xlink" version="1.1" x="8" y="0" viewBox="42.68599999999996 0.01599999999996271 426.628 511.9680000000001" enable-background="new 0 0 512 512" xml:space="preserve" height="51.420616016427104" width="42.84930810100682" class="icon-icon-0" data-fill-palette-color="accent" id="SvgjsSvg1648"></svg></g></svg></g><g></g></svg></g></svg></g></svg></g><defs><mask></mask></defs><mask><g id="SvgjsG1647"><svg viewBox="0 0 320 360" height="360" width="320"><g><svg></svg></g><g><svg viewBox="0 0 320 360" height="360" width="320"><g><path transform="translate(-25.80645,-5.80645) scale(10.32258,10.32258)" d="M18 33.5c8.55 0 15.5-6.95 15.5-15.5 0-8.55-6.95-15.5-15.5-15.5-8.55 0-15.5 6.95-15.5 15.5 0 8.55 6.95 15.5 15.5 15.5zM18.5 32.47v-1c7.04-0.26 12.71-5.93 12.97-12.97h1c-0.26 7.6-6.37 13.71-13.97 13.97zM18.5 3.53c7.6 0.26 13.71 6.37 13.97 13.97h-1c-0.26-7.04-5.93-12.71-12.97-12.97zM30.5 18c0 6.89-5.61 12.5-12.5 12.5-6.89 0-12.5-5.61-12.5-12.5 0-6.89 5.61-12.5 12.5-12.5 6.89 0 12.5 5.61 12.5 12.5zM17.5 3.53v1c-7.04 0.26-12.71 5.93-12.97 12.97h-1c0.26-7.6 6.37-13.71 13.97-13.97zM4.53 18.5c0.26 7.04 5.93 12.71 12.97 12.97v1c-7.6-0.26-13.71-6.37-13.97-13.97z" fill="black" fill-rule="nonzero" stroke="none" stroke-width="1" stroke-linecap="butt" stroke-linejoin="miter" stroke-miterlimit="10" stroke-dasharray="" stroke-dashoffset="0" font-family="none" font-weight="none" font-size="none" text-anchor="none" style="mix-blend-mode: normal"></path></g><g transform="matrix(1,0,0,1,64,131.29410973305954)"><svg viewBox="0 0 192 97.41178053388089" height="97.41178053388089" width="192"><g><svg viewBox="0 0 192 97.41178053388089" height="97.41178053388089" width="192"><g transform="matrix(1,0,0,1,0,60.20438833675564)"><svg viewBox="0 0 192 37.20739219712525" height="37.20739219712525" width="192"><g id="SvgjsG1646"><svg viewBox="0 0 192 37.20739219712525" height="37.20739219712525" width="192" id="SvgjsSvg1645"><g><svg viewBox="0 0 192 37.20739219712525" height="37.20739219712525" width="192"><g transform="matrix(1,0,0,1,0,0)"><svg width="192" viewBox="2 -37.5 194.79 37.75" height="37.20739219712525" data-palette-color="url(#4b49dfa3-3ff2-4808-907a-8711299b39da)"><path d="M17.65-34.3L17.65-34.3Q12-34.3 8.7-29.6 5.4-24.9 5.4-16L5.4-16Q5.4-5.2 10.35-2.05L10.35-2.05Q11.85-1.1 13.13-0.83 14.4-0.55 15.95-0.55L15.95-0.55Q20.9-0.55 26.3-1.75L26.3-1.75 26.45-1.05Q25.6-0.75 21.93-0.28 18.25 0.2 15.95 0.2 13.65 0.2 11.95-0.13 10.25-0.45 8.35-1.5 6.45-2.55 5.13-4.28 3.8-6 2.9-9 2-12 2-16L2-16Q2-24.85 6.05-29.8L6.05-29.8Q10.3-35 17.65-35L17.65-35Q19.9-35 22.53-34.58 25.15-34.15 26.25-33.75L26.25-33.75 26.85-26.55 25.9-26.2 25.25-31.55Q21.2-34.3 17.65-34.3ZM39.67 0.2Q34.45 0.2 31.22-2.8 28-5.8 28-11.98 28-18.15 31.42-21.68 34.85-25.2 40.05-25.2 45.25-25.2 48.5-22.2 51.75-19.2 51.75-13.03 51.75-6.85 48.32-3.33 44.9 0.2 39.67 0.2ZM40-24.3Q36.25-24.3 33.75-21.05 31.25-17.8 31.25-12.23 31.25-6.65 33.62-3.68 36-0.7 39.75-0.7 43.5-0.7 46-3.95 48.5-7.2 48.5-12.75 48.5-18.3 46.12-21.3 43.75-24.3 40-24.3ZM67.92 0.2Q62.7 0.2 59.47-2.8 56.25-5.8 56.25-11.98 56.25-18.15 59.67-21.68 63.1-25.2 68.3-25.2 73.5-25.2 76.75-22.2 80-19.2 80-13.03 80-6.85 76.57-3.33 73.15 0.2 67.92 0.2ZM68.25-24.3Q64.5-24.3 62-21.05 59.5-17.8 59.5-12.23 59.5-6.65 61.87-3.68 64.25-0.7 68-0.7 71.75-0.7 74.25-3.95 76.75-7.2 76.75-12.75 76.75-18.3 74.37-21.3 72-24.3 68.25-24.3ZM93.54 0L83.49 0.05 83.54-0.65 86.14-1Q86.49-1.05 86.59-1.5L86.59-1.5 86.59-35.7Q86.59-36.25 86.29-36.25L86.29-36.25 83.24-36.35 83.29-37.05Q86.44-37.5 87.62-37.5 88.79-37.5 89.32-36.85 89.84-36.2 89.84-35.45L89.84-35.45 89.84-1 93.59-0.75Q93.59-0.7 93.54 0L93.54 0ZM103.89-1L107.34-0.75Q107.34-0.7 107.29 0L107.29 0 100.99 0 89.84-13.3 98.44-23.25Q98.44-23.9 98.04-23.95L98.04-23.95 95.44-24.3Q95.39-24.55 95.39-25L95.39-25 105.89-24.95Q105.89-24.9 105.94-24.2L105.94-24.2 100.24-23.85 91.84-14.7 103.89-1ZM131.54-34.95L141.04-35Q141.04-34.95 141.09-34.25L141.09-34.25 137.94-33.9 137.94-0.95 141.59-0.75Q141.59-0.7 141.54 0L141.54 0 131.54 0.05Q131.54-0.4 131.59-0.65L131.59-0.65 134.19-1Q134.69-1.05 134.79-1.65L134.79-1.65 134.79-16.85 117.74-16.85 117.74-0.95 121.44-0.75Q121.44-0.7 121.39 0L121.39 0 111.34 0.05 111.39-0.65 113.99-1Q114.49-1.05 114.59-1.6L114.59-1.6 114.59-33.3Q114.49-33.9 113.99-33.95L113.99-33.95 111.39-34.2 111.34-34.95 121.39-35Q121.39-34.95 121.44-34.25L121.44-34.25 117.74-33.9 117.74-17.85 134.79-17.85 134.79-33.25Q134.69-33.9 134.19-33.95L134.19-33.95 131.59-34.2Q131.54-34.5 131.54-34.95L131.54-34.95ZM146.24-23.95L143.64-24.2 143.59-24.95 150.34-25 150.34-7.6Q150.34-5.65 150.89-4.23 151.44-2.8 152.11-2.15 152.79-1.5 153.69-1.15L153.69-1.15Q155.09-0.65 156.04-0.75L156.04-0.75Q159.09-0.8 162.99-3.9L162.99-3.9 162.99-23.25Q162.79-23.85 162.14-23.95L162.14-23.95 159.54-24.2Q159.49-24.5 159.49-24.95L159.49-24.95 166.24-25 166.24-2.3Q166.34-1.05 167.04-1.05L167.04-1.05 170.04-0.9 169.99-0.15Q167.59 0.25 164.99 0.25L164.99 0.25Q164.39 0.2 163.69-0.43 162.99-1.05 162.99-2L162.99-2 162.99-2.9Q158.44 0.15 154.39 0.15L154.39 0.15Q152.69 0.15 150.39-0.7L150.39-0.7Q148.89-1.25 147.99-2.78 147.09-4.3 147.09-6.6L147.09-6.6 147.09-23.2Q147.09-23.45 146.81-23.68 146.54-23.9 146.24-23.95L146.24-23.95ZM180.14-35.45L180.14-35.45 180.14-23Q183.14-25.45 186.84-25.45L186.84-25.45Q190.24-25.45 193.24-23.35L193.24-23.35Q194.84-22.2 195.81-19.75 196.79-17.3 196.79-13.8L196.79-13.8Q196.79-7.15 193.49-3.8L193.49-3.8Q189.74 0 183.99 0L183.99 0Q181.84 0 179.71-0.35 177.59-0.7 176.89-1.15L176.89-1.15 176.89-35.85Q176.79-36.25 176.59-36.25L176.59-36.25 173.54-36.35 173.59-37.05Q176.74-37.5 177.91-37.5 179.09-37.5 179.61-36.85 180.14-36.2 180.14-35.45ZM180.14-22.05L180.14-22.05 180.14-0.9Q181.49-0.45 183.29-0.45L183.29-0.45Q188.19-0.45 190.86-3.9 193.54-7.35 193.54-13.55L193.54-13.55Q193.54-20.35 190.84-22.7L190.84-22.7Q188.74-24.55 185.99-24.55 183.24-24.55 180.14-22.05Z" opacity="1" transform="matrix(1,0,0,1,0,0)" fill="black" class="wordmark-text-0" id="SvgjsPath1644"></path></svg></g></svg></g></svg></g></svg></g><g transform="matrix(1,0,0,1,66.5753459494966,0)"><svg viewBox="0 0 58.84930810100682 51.420616016427104" height="51.420616016427104" width="58.84930810100682"><g><svg xmlns="http://www.w3.org/2000/svg" xmlns:xlink="http://www.w3.org/1999/xlink" version="1.1" x="8" y="0" viewBox="42.68599999999996 0.01599999999996271 426.628 511.9680000000001" enable-background="new 0 0 512 512" xml:space="preserve" height="51.420616016427104" width="42.84930810100682" class="icon-icon-0" data-fill-palette-color="accent" id="SvgjsSvg1643"><g fill="black"><path d="M434.161 402.381l-1.594-0.453c-23.093-6.217-30.904-12.154-41.185-16.076-36.451-13.891-45.951-23.904-48.373-28.639-0.078-0.156-0.156-0.344-0.234-0.531l-0.219-31.842c1.75-2.359 3.469-4.75 5.125-7.219 22.655-10.984 25.717-28.311 21.218-42.654 4.499-13.686 7.093-28.029 7.093-42.591 0-6.538-0.375-12.89-1.109-19.038h1.109v-65.191c34.873-6.288 61.324-36.786 61.324-73.472 0-41.231-33.419-74.659-74.65-74.659-20.906 0-39.779 8.593-53.326 22.428C295.779 8.601 276.904 0.016 256 0.016c-18.28 0-35.029 6.577-48.013 17.483C195.02 6.593 178.286 0.016 160.006 0.016c-41.231 0-74.667 33.428-74.667 74.659 0 32.842 21.202 60.723 50.669 70.723v67.94h1.109c-0.734 6.148-1.109 12.5-1.109 19.038 0 14.562 2.594 28.905 7.093 42.606-4.499 14.328-1.438 31.654 21.218 42.639 1.656 2.469 3.375 4.859 5.125 7.219l-0.219 31.842c-0.078 0.188-0.156 0.375-0.234 0.531-2.422 4.734-11.922 14.748-48.388 28.639-10.266 3.922-18.077 9.859-41.17 16.076l-1.594 0.453c-21.014 6.953-35.153 26.451-35.153 48.451v61.152H256h213.314v-61.152C469.314 428.832 455.176 409.334 434.161 402.381zM190.551 356.838l0.062-8.156c21.733 20.639 46.106 33.42 65.387 33.42s43.654-12.781 65.387-33.42l0.062 8.156 0.031 4.531 0.719 1.594-66.105 43.168-65.777-44.324 0.203-0.453L190.551 356.838zM256 308.84c10.375 11.359 27.982 18.938 45.403 18.938 1.781 0 3.562-0.078 5.344-0.25 2.171-0.188 4.265-0.406 6.296-0.672-9.421 9.998-19.67 18.389-29.92 24.482-10.249 6.078-19.889 9.438-27.123 9.438-7.233 0-16.874-3.359-27.123-9.438-10.249-6.094-20.499-14.484-29.92-24.482 2.031 0.266 4.125 0.484 6.296 0.672 1.781 0.172 3.562 0.25 5.344 0.25C228.018 327.777 245.626 320.199 256 308.84zM304.794 306.293c-1.109 0.109-2.25 0.156-3.391 0.156-14.812 0-28.764-8.311-32.498-16.076-0.812-1.672-2.312-4.812 2.516-10.844 0.219-0.281 0.422-0.531 0.609-0.75 2.906 1.547 7.452 4.922 10.405 7.109 10.531 7.812 23.64 17.529 40.576 17.529 0.172 0 0.328 0 0.5 0C318.402 304.59 312.23 305.621 304.794 306.293zM243.095 290.373c-1.828 3.797-6.047 7.688-11.577 10.686-6.406 3.469-13.827 5.391-20.921 5.391-1.141 0-2.281-0.047-3.391-0.156-7.437-0.672-13.608-1.703-18.718-2.875 0.172 0 0.328 0 0.5 0 16.937 0 30.046-9.717 40.576-17.529 2.953-2.188 7.499-5.562 10.405-7.109 0.188 0.219 0.391 0.469 0.609 0.75C245.407 285.561 243.907 288.701 243.095 290.373zM106.682 74.675c0-29.404 23.92-53.325 53.324-53.325 12.343 0 24.265 4.273 33.764 12.062-7.858 11.819-12.437 26.006-12.437 41.263 0 5.891 4.781 10.671 10.671 10.671 5.891 0 10.672-4.78 10.672-10.671 0-29.404 23.92-53.325 53.324-53.325s53.324 23.921 53.324 53.325l0 0c0 5.891 4.781 10.671 10.672 10.671s10.672-4.78 10.672-10.671c0-0.016 0-0.039 0-0.055-0.016-12.491-3.094-24.264-8.531-34.607 1.672-1.953 3.5-3.797 5.453-5.507 9.702-8.484 22.154-13.156 35.076-13.156 29.404 0 53.324 23.921 53.324 53.325 0 12.577-4.453 24.788-12.546 34.373-8.015 9.491-19.108 15.921-31.233 18.108l-17.545 3.164v17.826 43.857H157.334v-46.606-15.288l-14.468-4.914C121.212 117.852 106.682 97.549 106.682 74.675zM353.385 213.338c0.844 6.156 1.281 12.516 1.281 19.038 0 6.664-0.672 13.46-1.984 20.312-2.469-1.523-4.875-2.367-7-2.367-0.078 0-0.156 0-0.234 0-14.451 0.438-21.404 15.438-21.404 15.438 2.156-0.664 4.266-0.961 6.234-0.961 9.967 0 16.061 7.67 3.468 14.467-3.671 1.984-7.249 2.828-10.733 2.828-19.108 0-35.451-25.35-52.091-25.35-4.921 0-9.874 2.227-14.921 7.984-5.046-5.758-9.999-7.984-14.921-7.984-16.64 0-32.982 25.35-52.091 25.35-3.483 0-7.062-0.844-10.749-2.828-12.577-6.797-6.483-14.467 3.484-14.467 1.969 0 4.078 0.297 6.234 0.961 0 0-6.953-15-21.405-15.438-0.078 0-0.156 0-0.234 0-2.125 0-4.531 0.844-7 2.367-1.312-6.844-1.984-13.647-1.984-20.312 0-6.522 0.438-12.882 1.281-19.038H353.385zM64.012 450.832c0-12.688 8.109-23.936 20.202-28.092l0.953-0.281c17.624-4.75 27.764-9.594 35.17-13.141 3.047-1.453 5.468-2.609 7.874-3.531 13.39-5.109 23.749-9.889 31.795-14.311v99.166H64.012V450.832zM181.333 490.643v-109.15l74.573 50.246 74.762-48.824v107.729H256 181.333zM447.988 490.643h-95.994v-99.166c8.047 4.422 18.405 9.201 31.811 14.326 2.391 0.906 4.812 2.062 7.859 3.516 7.405 3.547 17.545 8.391 35.17 13.156l0.953 0.266c12.092 4.156 20.201 15.404 20.201 28.092V490.643z" fill="black"></path><path d="M224.002 426.646c-5.89 0-10.671 4.779-10.671 10.67s4.781 10.672 10.671 10.672c5.891 0 10.672-4.781 10.672-10.672S229.893 426.646 224.002 426.646z" fill="black"></path><path d="M224.002 469.314c-5.89 0-10.671 4.781-10.671 10.672s4.781 10.656 10.671 10.656c5.891 0 10.672-4.766 10.672-10.656S229.893 469.314 224.002 469.314z" fill="black"></path><path d="M287.998 447.988c5.891 0 10.672-4.781 10.672-10.672s-4.781-10.67-10.672-10.67-10.672 4.779-10.672 10.67S282.107 447.988 287.998 447.988z" fill="black"></path><path d="M287.998 469.314c-5.891 0-10.672 4.781-10.672 10.672s4.781 10.656 10.672 10.656 10.672-4.766 10.672-10.656S293.889 469.314 287.998 469.314z" fill="black"></path></g></svg></g></svg></g><g><rect width="66.5753459494966" height="3.3554010263655027" y="47.0652149900616" x="125.42465405050342" fill="black"></rect><rect width="66.5753459494966" height="3.3554010263655027" y="47.0652149900616" x="0" fill="black"></rect><rect width="66.5753459494966" height="3.3554010263655027" y="40.35441293733059" x="125.42465405050342" fill="black"></rect><rect width="66.5753459494966" height="3.3554010263655027" y="40.35441293733059" x="0" fill="black"></rect></g></svg></g></svg></g></svg></g><defs><mask></mask></defs></svg><rect width="320" height="360" fill="black" stroke="none" visibility="hidden"></rect></g></mask><mask><g id="SvgjsG1642"><svg viewBox="0 0 320 360" height="360" width="320"><g><svg></svg></g><g><svg viewBox="0 0 320 360" height="360" width="320"><g><path transform="translate(-25.80645,-5.80645) scale(10.32258,10.32258)" d="M18 33.5c8.55 0 15.5-6.95 15.5-15.5 0-8.55-6.95-15.5-15.5-15.5-8.55 0-15.5 6.95-15.5 15.5 0 8.55 6.95 15.5 15.5 15.5zM18.5 32.47v-1c7.04-0.26 12.71-5.93 12.97-12.97h1c-0.26 7.6-6.37 13.71-13.97 13.97zM18.5 3.53c7.6 0.26 13.71 6.37 13.97 13.97h-1c-0.26-7.04-5.93-12.71-12.97-12.97zM30.5 18c0 6.89-5.61 12.5-12.5 12.5-6.89 0-12.5-5.61-12.5-12.5 0-6.89 5.61-12.5 12.5-12.5 6.89 0 12.5 5.61 12.5 12.5zM17.5 3.53v1c-7.04 0.26-12.71 5.93-12.97 12.97h-1c0.26-7.6 6.37-13.71 13.97-13.97zM4.53 18.5c0.26 7.04 5.93 12.71 12.97 12.97v1c-7.6-0.26-13.71-6.37-13.97-13.97z" fill="black" fill-rule="nonzero" stroke="none" stroke-width="1" stroke-linecap="butt" stroke-linejoin="miter" stroke-miterlimit="10" stroke-dasharray="" stroke-dashoffset="0" font-family="none" font-weight="none" font-size="none" text-anchor="none" style="mix-blend-mode: normal"></path></g><g transform="matrix(1,0,0,1,64,131.29410973305954)"><svg viewBox="0 0 192 97.41178053388089" height="97.41178053388089" width="192"><g><svg viewBox="0 0 192 97.41178053388089" height="97.41178053388089" width="192"><g transform="matrix(1,0,0,1,0,60.20438833675564)"><svg viewBox="0 0 192 37.20739219712525" height="37.20739219712525" width="192"><g id="SvgjsG1641"><svg viewBox="0 0 192 37.20739219712525" height="37.20739219712525" width="192" id="SvgjsSvg1640"><g><svg viewBox="0 0 192 37.20739219712525" height="37.20739219712525" width="192"><g transform="matrix(1,0,0,1,0,0)"><svg width="192" viewBox="2 -37.5 194.79 37.75" height="37.20739219712525" data-palette-color="url(#4b49dfa3-3ff2-4808-907a-8711299b39da)"></svg></g></svg></g></svg></g></svg></g><g transform="matrix(1,0,0,1,66.5753459494966,0)"><svg viewBox="0 0 58.84930810100682 51.420616016427104" height="51.420616016427104" width="58.84930810100682"><g><svg xmlns="http://www.w3.org/2000/svg" xmlns:xlink="http://www.w3.org/1999/xlink" version="1.1" x="8" y="0" viewBox="42.68599999999996 0.01599999999996271 426.628 511.9680000000001" enable-background="new 0 0 512 512" xml:space="preserve" height="51.420616016427104" width="42.84930810100682" class="icon-icon-0" data-fill-palette-color="accent" id="SvgjsSvg1639"><g fill="black"><path d="M434.161 402.381l-1.594-0.453c-23.093-6.217-30.904-12.154-41.185-16.076-36.451-13.891-45.951-23.904-48.373-28.639-0.078-0.156-0.156-0.344-0.234-0.531l-0.219-31.842c1.75-2.359 3.469-4.75 5.125-7.219 22.655-10.984 25.717-28.311 21.218-42.654 4.499-13.686 7.093-28.029 7.093-42.591 0-6.538-0.375-12.89-1.109-19.038h1.109v-65.191c34.873-6.288 61.324-36.786 61.324-73.472 0-41.231-33.419-74.659-74.65-74.659-20.906 0-39.779 8.593-53.326 22.428C295.779 8.601 276.904 0.016 256 0.016c-18.28 0-35.029 6.577-48.013 17.483C195.02 6.593 178.286 0.016 160.006 0.016c-41.231 0-74.667 33.428-74.667 74.659 0 32.842 21.202 60.723 50.669 70.723v67.94h1.109c-0.734 6.148-1.109 12.5-1.109 19.038 0 14.562 2.594 28.905 7.093 42.606-4.499 14.328-1.438 31.654 21.218 42.639 1.656 2.469 3.375 4.859 5.125 7.219l-0.219 31.842c-0.078 0.188-0.156 0.375-0.234 0.531-2.422 4.734-11.922 14.748-48.388 28.639-10.266 3.922-18.077 9.859-41.17 16.076l-1.594 0.453c-21.014 6.953-35.153 26.451-35.153 48.451v61.152H256h213.314v-61.152C469.314 428.832 455.176 409.334 434.161 402.381zM190.551 356.838l0.062-8.156c21.733 20.639 46.106 33.42 65.387 33.42s43.654-12.781 65.387-33.42l0.062 8.156 0.031 4.531 0.719 1.594-66.105 43.168-65.777-44.324 0.203-0.453L190.551 356.838zM256 308.84c10.375 11.359 27.982 18.938 45.403 18.938 1.781 0 3.562-0.078 5.344-0.25 2.171-0.188 4.265-0.406 6.296-0.672-9.421 9.998-19.67 18.389-29.92 24.482-10.249 6.078-19.889 9.438-27.123 9.438-7.233 0-16.874-3.359-27.123-9.438-10.249-6.094-20.499-14.484-29.92-24.482 2.031 0.266 4.125 0.484 6.296 0.672 1.781 0.172 3.562 0.25 5.344 0.25C228.018 327.777 245.626 320.199 256 308.84zM304.794 306.293c-1.109 0.109-2.25 0.156-3.391 0.156-14.812 0-28.764-8.311-32.498-16.076-0.812-1.672-2.312-4.812 2.516-10.844 0.219-0.281 0.422-0.531 0.609-0.75 2.906 1.547 7.452 4.922 10.405 7.109 10.531 7.812 23.64 17.529 40.576 17.529 0.172 0 0.328 0 0.5 0C318.402 304.59 312.23 305.621 304.794 306.293zM243.095 290.373c-1.828 3.797-6.047 7.688-11.577 10.686-6.406 3.469-13.827 5.391-20.921 5.391-1.141 0-2.281-0.047-3.391-0.156-7.437-0.672-13.608-1.703-18.718-2.875 0.172 0 0.328 0 0.5 0 16.937 0 30.046-9.717 40.576-17.529 2.953-2.188 7.499-5.562 10.405-7.109 0.188 0.219 0.391 0.469 0.609 0.75C245.407 285.561 243.907 288.701 243.095 290.373zM106.682 74.675c0-29.404 23.92-53.325 53.324-53.325 12.343 0 24.265 4.273 33.764 12.062-7.858 11.819-12.437 26.006-12.437 41.263 0 5.891 4.781 10.671 10.671 10.671 5.891 0 10.672-4.78 10.672-10.671 0-29.404 23.92-53.325 53.324-53.325s53.324 23.921 53.324 53.325l0 0c0 5.891 4.781 10.671 10.672 10.671s10.672-4.78 10.672-10.671c0-0.016 0-0.039 0-0.055-0.016-12.491-3.094-24.264-8.531-34.607 1.672-1.953 3.5-3.797 5.453-5.507 9.702-8.484 22.154-13.156 35.076-13.156 29.404 0 53.324 23.921 53.324 53.325 0 12.577-4.453 24.788-12.546 34.373-8.015 9.491-19.108 15.921-31.233 18.108l-17.545 3.164v17.826 43.857H157.334v-46.606-15.288l-14.468-4.914C121.212 117.852 106.682 97.549 106.682 74.675zM353.385 213.338c0.844 6.156 1.281 12.516 1.281 19.038 0 6.664-0.672 13.46-1.984 20.312-2.469-1.523-4.875-2.367-7-2.367-0.078 0-0.156 0-0.234 0-14.451 0.438-21.404 15.438-21.404 15.438 2.156-0.664 4.266-0.961 6.234-0.961 9.967 0 16.061 7.67 3.468 14.467-3.671 1.984-7.249 2.828-10.733 2.828-19.108 0-35.451-25.35-52.091-25.35-4.921 0-9.874 2.227-14.921 7.984-5.046-5.758-9.999-7.984-14.921-7.984-16.64 0-32.982 25.35-52.091 25.35-3.483 0-7.062-0.844-10.749-2.828-12.577-6.797-6.483-14.467 3.484-14.467 1.969 0 4.078 0.297 6.234 0.961 0 0-6.953-15-21.405-15.438-0.078 0-0.156 0-0.234 0-2.125 0-4.531 0.844-7 2.367-1.312-6.844-1.984-13.647-1.984-20.312 0-6.522 0.438-12.882 1.281-19.038H353.385zM64.012 450.832c0-12.688 8.109-23.936 20.202-28.092l0.953-0.281c17.624-4.75 27.764-9.594 35.17-13.141 3.047-1.453 5.468-2.609 7.874-3.531 13.39-5.109 23.749-9.889 31.795-14.311v99.166H64.012V450.832zM181.333 490.643v-109.15l74.573 50.246 74.762-48.824v107.729H256 181.333zM447.988 490.643h-95.994v-99.166c8.047 4.422 18.405 9.201 31.811 14.326 2.391 0.906 4.812 2.062 7.859 3.516 7.405 3.547 17.545 8.391 35.17 13.156l0.953 0.266c12.092 4.156 20.201 15.404 20.201 28.092V490.643z" fill="black"></path><path d="M224.002 426.646c-5.89 0-10.671 4.779-10.671 10.67s4.781 10.672 10.671 10.672c5.891 0 10.672-4.781 10.672-10.672S229.893 426.646 224.002 426.646z" fill="black"></path><path d="M224.002 469.314c-5.89 0-10.671 4.781-10.671 10.672s4.781 10.656 10.671 10.656c5.891 0 10.672-4.766 10.672-10.656S229.893 469.314 224.002 469.314z" fill="black"></path><path d="M287.998 447.988c5.891 0 10.672-4.781 10.672-10.672s-4.781-10.67-10.672-10.67-10.672 4.779-10.672 10.67S282.107 447.988 287.998 447.988z" fill="black"></path><path d="M287.998 469.314c-5.891 0-10.672 4.781-10.672 10.672s4.781 10.656 10.672 10.656 10.672-4.766 10.672-10.656S293.889 469.314 287.998 469.314z" fill="black"></path></g></svg></g></svg></g><g><rect width="66.5753459494966" height="3.3554010263655027" y="47.0652149900616" x="125.42465405050342" fill="black"></rect><rect width="66.5753459494966" height="3.3554010263655027" y="47.0652149900616" x="0" fill="black"></rect><rect width="66.5753459494966" height="3.3554010263655027" y="40.35441293733059" x="125.42465405050342" fill="black"></rect><rect width="66.5753459494966" height="3.3554010263655027" y="40.35441293733059" x="0" fill="black"></rect></g></svg></g></svg></g></svg></g><defs><mask></mask></defs><mask><g id="SvgjsG1638"><svg viewBox="0 0 320 360" height="360" width="320"><g><svg></svg></g><g><svg viewBox="0 0 320 360" height="360" width="320"><g><path transform="translate(-25.80645,-5.80645) scale(10.32258,10.32258)" d="M18 33.5c8.55 0 15.5-6.95 15.5-15.5 0-8.55-6.95-15.5-15.5-15.5-8.55 0-15.5 6.95-15.5 15.5 0 8.55 6.95 15.5 15.5 15.5zM18.5 32.47v-1c7.04-0.26 12.71-5.93 12.97-12.97h1c-0.26 7.6-6.37 13.71-13.97 13.97zM18.5 3.53c7.6 0.26 13.71 6.37 13.97 13.97h-1c-0.26-7.04-5.93-12.71-12.97-12.97zM30.5 18c0 6.89-5.61 12.5-12.5 12.5-6.89 0-12.5-5.61-12.5-12.5 0-6.89 5.61-12.5 12.5-12.5 6.89 0 12.5 5.61 12.5 12.5zM17.5 3.53v1c-7.04 0.26-12.71 5.93-12.97 12.97h-1c0.26-7.6 6.37-13.71 13.97-13.97zM4.53 18.5c0.26 7.04 5.93 12.71 12.97 12.97v1c-7.6-0.26-13.71-6.37-13.97-13.97z" fill="black" fill-rule="nonzero" stroke="none" stroke-width="1" stroke-linecap="butt" stroke-linejoin="miter" stroke-miterlimit="10" stroke-dasharray="" stroke-dashoffset="0" font-family="none" font-weight="none" font-size="none" text-anchor="none" style="mix-blend-mode: normal"></path></g><g transform="matrix(1,0,0,1,64,131.29410973305954)"><svg viewBox="0 0 192 97.41178053388089" height="97.41178053388089" width="192"><g><svg viewBox="0 0 192 97.41178053388089" height="97.41178053388089" width="192"><g transform="matrix(1,0,0,1,0,60.20438833675564)"><svg viewBox="0 0 192 37.20739219712525" height="37.20739219712525" width="192"><g id="SvgjsG1637"><svg viewBox="0 0 192 37.20739219712525" height="37.20739219712525" width="192" id="SvgjsSvg1636"><g><svg viewBox="0 0 192 37.20739219712525" height="37.20739219712525" width="192"><g transform="matrix(1,0,0,1,0,0)"><svg width="192" viewBox="2 -37.5 194.79 37.75" height="37.20739219712525" data-palette-color="url(#4b49dfa3-3ff2-4808-907a-8711299b39da)"><path d="M17.65-34.3L17.65-34.3Q12-34.3 8.7-29.6 5.4-24.9 5.4-16L5.4-16Q5.4-5.2 10.35-2.05L10.35-2.05Q11.85-1.1 13.13-0.83 14.4-0.55 15.95-0.55L15.95-0.55Q20.9-0.55 26.3-1.75L26.3-1.75 26.45-1.05Q25.6-0.75 21.93-0.28 18.25 0.2 15.95 0.2 13.65 0.2 11.95-0.13 10.25-0.45 8.35-1.5 6.45-2.55 5.13-4.28 3.8-6 2.9-9 2-12 2-16L2-16Q2-24.85 6.05-29.8L6.05-29.8Q10.3-35 17.65-35L17.65-35Q19.9-35 22.53-34.58 25.15-34.15 26.25-33.75L26.25-33.75 26.85-26.55 25.9-26.2 25.25-31.55Q21.2-34.3 17.65-34.3ZM39.67 0.2Q34.45 0.2 31.22-2.8 28-5.8 28-11.98 28-18.15 31.42-21.68 34.85-25.2 40.05-25.2 45.25-25.2 48.5-22.2 51.75-19.2 51.75-13.03 51.75-6.85 48.32-3.33 44.9 0.2 39.67 0.2ZM40-24.3Q36.25-24.3 33.75-21.05 31.25-17.8 31.25-12.23 31.25-6.65 33.62-3.68 36-0.7 39.75-0.7 43.5-0.7 46-3.95 48.5-7.2 48.5-12.75 48.5-18.3 46.12-21.3 43.75-24.3 40-24.3ZM67.92 0.2Q62.7 0.2 59.47-2.8 56.25-5.8 56.25-11.98 56.25-18.15 59.67-21.68 63.1-25.2 68.3-25.2 73.5-25.2 76.75-22.2 80-19.2 80-13.03 80-6.85 76.57-3.33 73.15 0.2 67.92 0.2ZM68.25-24.3Q64.5-24.3 62-21.05 59.5-17.8 59.5-12.23 59.5-6.65 61.87-3.68 64.25-0.7 68-0.7 71.75-0.7 74.25-3.95 76.75-7.2 76.75-12.75 76.75-18.3 74.37-21.3 72-24.3 68.25-24.3ZM93.54 0L83.49 0.05 83.54-0.65 86.14-1Q86.49-1.05 86.59-1.5L86.59-1.5 86.59-35.7Q86.59-36.25 86.29-36.25L86.29-36.25 83.24-36.35 83.29-37.05Q86.44-37.5 87.62-37.5 88.79-37.5 89.32-36.85 89.84-36.2 89.84-35.45L89.84-35.45 89.84-1 93.59-0.75Q93.59-0.7 93.54 0L93.54 0ZM103.89-1L107.34-0.75Q107.34-0.7 107.29 0L107.29 0 100.99 0 89.84-13.3 98.44-23.25Q98.44-23.9 98.04-23.95L98.04-23.95 95.44-24.3Q95.39-24.55 95.39-25L95.39-25 105.89-24.95Q105.89-24.9 105.94-24.2L105.94-24.2 100.24-23.85 91.84-14.7 103.89-1ZM131.54-34.95L141.04-35Q141.04-34.95 141.09-34.25L141.09-34.25 137.94-33.9 137.94-0.95 141.59-0.75Q141.59-0.7 141.54 0L141.54 0 131.54 0.05Q131.54-0.4 131.59-0.65L131.59-0.65 134.19-1Q134.69-1.05 134.79-1.65L134.79-1.65 134.79-16.85 117.74-16.85 117.74-0.95 121.44-0.75Q121.44-0.7 121.39 0L121.39 0 111.34 0.05 111.39-0.65 113.99-1Q114.49-1.05 114.59-1.6L114.59-1.6 114.59-33.3Q114.49-33.9 113.99-33.95L113.99-33.95 111.39-34.2 111.34-34.95 121.39-35Q121.39-34.95 121.44-34.25L121.44-34.25 117.74-33.9 117.74-17.85 134.79-17.85 134.79-33.25Q134.69-33.9 134.19-33.95L134.19-33.95 131.59-34.2Q131.54-34.5 131.54-34.95L131.54-34.95ZM146.24-23.95L143.64-24.2 143.59-24.95 150.34-25 150.34-7.6Q150.34-5.65 150.89-4.23 151.44-2.8 152.11-2.15 152.79-1.5 153.69-1.15L153.69-1.15Q155.09-0.65 156.04-0.75L156.04-0.75Q159.09-0.8 162.99-3.9L162.99-3.9 162.99-23.25Q162.79-23.85 162.14-23.95L162.14-23.95 159.54-24.2Q159.49-24.5 159.49-24.95L159.49-24.95 166.24-25 166.24-2.3Q166.34-1.05 167.04-1.05L167.04-1.05 170.04-0.9 169.99-0.15Q167.59 0.25 164.99 0.25L164.99 0.25Q164.39 0.2 163.69-0.43 162.99-1.05 162.99-2L162.99-2 162.99-2.9Q158.44 0.15 154.39 0.15L154.39 0.15Q152.69 0.15 150.39-0.7L150.39-0.7Q148.89-1.25 147.99-2.78 147.09-4.3 147.09-6.6L147.09-6.6 147.09-23.2Q147.09-23.45 146.81-23.68 146.54-23.9 146.24-23.95L146.24-23.95ZM180.14-35.45L180.14-35.45 180.14-23Q183.14-25.45 186.84-25.45L186.84-25.45Q190.24-25.45 193.24-23.35L193.24-23.35Q194.84-22.2 195.81-19.75 196.79-17.3 196.79-13.8L196.79-13.8Q196.79-7.15 193.49-3.8L193.49-3.8Q189.74 0 183.99 0L183.99 0Q181.84 0 179.71-0.35 177.59-0.7 176.89-1.15L176.89-1.15 176.89-35.85Q176.79-36.25 176.59-36.25L176.59-36.25 173.54-36.35 173.59-37.05Q176.74-37.5 177.91-37.5 179.09-37.5 179.61-36.85 180.14-36.2 180.14-35.45ZM180.14-22.05L180.14-22.05 180.14-0.9Q181.49-0.45 183.29-0.45L183.29-0.45Q188.19-0.45 190.86-3.9 193.54-7.35 193.54-13.55L193.54-13.55Q193.54-20.35 190.84-22.7L190.84-22.7Q188.74-24.55 185.99-24.55 183.24-24.55 180.14-22.05Z" opacity="1" transform="matrix(1,0,0,1,0,0)" fill="black" class="wordmark-text-0" id="SvgjsPath1635"></path></svg></g></svg></g></svg></g></svg></g><g transform="matrix(1,0,0,1,66.5753459494966,0)"><svg viewBox="0 0 58.84930810100682 51.420616016427104" height="51.420616016427104" width="58.84930810100682"><g><svg xmlns="http://www.w3.org/2000/svg" xmlns:xlink="http://www.w3.org/1999/xlink" version="1.1" x="8" y="0" viewBox="42.68599999999996 0.01599999999996271 426.628 511.9680000000001" enable-background="new 0 0 512 512" xml:space="preserve" height="51.420616016427104" width="42.84930810100682" class="icon-icon-0" data-fill-palette-color="accent" id="SvgjsSvg1634"><g fill="black"><path d="M434.161 402.381l-1.594-0.453c-23.093-6.217-30.904-12.154-41.185-16.076-36.451-13.891-45.951-23.904-48.373-28.639-0.078-0.156-0.156-0.344-0.234-0.531l-0.219-31.842c1.75-2.359 3.469-4.75 5.125-7.219 22.655-10.984 25.717-28.311 21.218-42.654 4.499-13.686 7.093-28.029 7.093-42.591 0-6.538-0.375-12.89-1.109-19.038h1.109v-65.191c34.873-6.288 61.324-36.786 61.324-73.472 0-41.231-33.419-74.659-74.65-74.659-20.906 0-39.779 8.593-53.326 22.428C295.779 8.601 276.904 0.016 256 0.016c-18.28 0-35.029 6.577-48.013 17.483C195.02 6.593 178.286 0.016 160.006 0.016c-41.231 0-74.667 33.428-74.667 74.659 0 32.842 21.202 60.723 50.669 70.723v67.94h1.109c-0.734 6.148-1.109 12.5-1.109 19.038 0 14.562 2.594 28.905 7.093 42.606-4.499 14.328-1.438 31.654 21.218 42.639 1.656 2.469 3.375 4.859 5.125 7.219l-0.219 31.842c-0.078 0.188-0.156 0.375-0.234 0.531-2.422 4.734-11.922 14.748-48.388 28.639-10.266 3.922-18.077 9.859-41.17 16.076l-1.594 0.453c-21.014 6.953-35.153 26.451-35.153 48.451v61.152H256h213.314v-61.152C469.314 428.832 455.176 409.334 434.161 402.381zM190.551 356.838l0.062-8.156c21.733 20.639 46.106 33.42 65.387 33.42s43.654-12.781 65.387-33.42l0.062 8.156 0.031 4.531 0.719 1.594-66.105 43.168-65.777-44.324 0.203-0.453L190.551 356.838zM256 308.84c10.375 11.359 27.982 18.938 45.403 18.938 1.781 0 3.562-0.078 5.344-0.25 2.171-0.188 4.265-0.406 6.296-0.672-9.421 9.998-19.67 18.389-29.92 24.482-10.249 6.078-19.889 9.438-27.123 9.438-7.233 0-16.874-3.359-27.123-9.438-10.249-6.094-20.499-14.484-29.92-24.482 2.031 0.266 4.125 0.484 6.296 0.672 1.781 0.172 3.562 0.25 5.344 0.25C228.018 327.777 245.626 320.199 256 308.84zM304.794 306.293c-1.109 0.109-2.25 0.156-3.391 0.156-14.812 0-28.764-8.311-32.498-16.076-0.812-1.672-2.312-4.812 2.516-10.844 0.219-0.281 0.422-0.531 0.609-0.75 2.906 1.547 7.452 4.922 10.405 7.109 10.531 7.812 23.64 17.529 40.576 17.529 0.172 0 0.328 0 0.5 0C318.402 304.59 312.23 305.621 304.794 306.293zM243.095 290.373c-1.828 3.797-6.047 7.688-11.577 10.686-6.406 3.469-13.827 5.391-20.921 5.391-1.141 0-2.281-0.047-3.391-0.156-7.437-0.672-13.608-1.703-18.718-2.875 0.172 0 0.328 0 0.5 0 16.937 0 30.046-9.717 40.576-17.529 2.953-2.188 7.499-5.562 10.405-7.109 0.188 0.219 0.391 0.469 0.609 0.75C245.407 285.561 243.907 288.701 243.095 290.373zM106.682 74.675c0-29.404 23.92-53.325 53.324-53.325 12.343 0 24.265 4.273 33.764 12.062-7.858 11.819-12.437 26.006-12.437 41.263 0 5.891 4.781 10.671 10.671 10.671 5.891 0 10.672-4.78 10.672-10.671 0-29.404 23.92-53.325 53.324-53.325s53.324 23.921 53.324 53.325l0 0c0 5.891 4.781 10.671 10.672 10.671s10.672-4.78 10.672-10.671c0-0.016 0-0.039 0-0.055-0.016-12.491-3.094-24.264-8.531-34.607 1.672-1.953 3.5-3.797 5.453-5.507 9.702-8.484 22.154-13.156 35.076-13.156 29.404 0 53.324 23.921 53.324 53.325 0 12.577-4.453 24.788-12.546 34.373-8.015 9.491-19.108 15.921-31.233 18.108l-17.545 3.164v17.826 43.857H157.334v-46.606-15.288l-14.468-4.914C121.212 117.852 106.682 97.549 106.682 74.675zM353.385 213.338c0.844 6.156 1.281 12.516 1.281 19.038 0 6.664-0.672 13.46-1.984 20.312-2.469-1.523-4.875-2.367-7-2.367-0.078 0-0.156 0-0.234 0-14.451 0.438-21.404 15.438-21.404 15.438 2.156-0.664 4.266-0.961 6.234-0.961 9.967 0 16.061 7.67 3.468 14.467-3.671 1.984-7.249 2.828-10.733 2.828-19.108 0-35.451-25.35-52.091-25.35-4.921 0-9.874 2.227-14.921 7.984-5.046-5.758-9.999-7.984-14.921-7.984-16.64 0-32.982 25.35-52.091 25.35-3.483 0-7.062-0.844-10.749-2.828-12.577-6.797-6.483-14.467 3.484-14.467 1.969 0 4.078 0.297 6.234 0.961 0 0-6.953-15-21.405-15.438-0.078 0-0.156 0-0.234 0-2.125 0-4.531 0.844-7 2.367-1.312-6.844-1.984-13.647-1.984-20.312 0-6.522 0.438-12.882 1.281-19.038H353.385zM64.012 450.832c0-12.688 8.109-23.936 20.202-28.092l0.953-0.281c17.624-4.75 27.764-9.594 35.17-13.141 3.047-1.453 5.468-2.609 7.874-3.531 13.39-5.109 23.749-9.889 31.795-14.311v99.166H64.012V450.832zM181.333 490.643v-109.15l74.573 50.246 74.762-48.824v107.729H256 181.333zM447.988 490.643h-95.994v-99.166c8.047 4.422 18.405 9.201 31.811 14.326 2.391 0.906 4.812 2.062 7.859 3.516 7.405 3.547 17.545 8.391 35.17 13.156l0.953 0.266c12.092 4.156 20.201 15.404 20.201 28.092V490.643z" fill="black"></path><path d="M224.002 426.646c-5.89 0-10.671 4.779-10.671 10.67s4.781 10.672 10.671 10.672c5.891 0 10.672-4.781 10.672-10.672S229.893 426.646 224.002 426.646z" fill="black"></path><path d="M224.002 469.314c-5.89 0-10.671 4.781-10.671 10.672s4.781 10.656 10.671 10.656c5.891 0 10.672-4.766 10.672-10.656S229.893 469.314 224.002 469.314z" fill="black"></path><path d="M287.998 447.988c5.891 0 10.672-4.781 10.672-10.672s-4.781-10.67-10.672-10.67-10.672 4.779-10.672 10.67S282.107 447.988 287.998 447.988z" fill="black"></path><path d="M287.998 469.314c-5.891 0-10.672 4.781-10.672 10.672s4.781 10.656 10.672 10.656 10.672-4.766 10.672-10.656S293.889 469.314 287.998 469.314z" fill="black"></path></g></svg></g></svg></g><g><rect width="66.5753459494966" height="3.3554010263655027" y="47.0652149900616" x="125.42465405050342" fill="black"></rect><rect width="66.5753459494966" height="3.3554010263655027" y="47.0652149900616" x="0" fill="black"></rect><rect width="66.5753459494966" height="3.3554010263655027" y="40.35441293733059" x="125.42465405050342" fill="black"></rect><rect width="66.5753459494966" height="3.3554010263655027" y="40.35441293733059" x="0" fill="black"></rect></g></svg></g></svg></g></svg></g><defs><mask></mask></defs></svg><rect width="320" height="360" fill="black" stroke="none" visibility="hidden"></rect></g></mask></svg><rect width="320" height="360" fill="black" stroke="none" visibility="hidden"></rect></g></mask></svg><rect width="320" height="360" fill="black" stroke="none" visibility="hidden"></rect></g></mask><linearGradient x1="0" x2="1" y1="0.578" y2="0.595" id="995be1bb-344a-4d78-a8cf-ea2586f2b876"><stop stop-color="#dede50" offset="0"></stop><stop stop-color="#559c49" offset="1"></stop></linearGradient></svg><rect width="320" height="360" fill="none" stroke="none" visibility="hidden"></rect></g></svg></g></svg>